<?xml version="1.0" encoding="UTF-8"?>
<svg width="378px" height="142px" viewBox="0 0 378 142" version="1.1" xmlns="http://www.w3.org/2000/svg" xmlns:xlink="http://www.w3.org/1999/xlink">
    <!-- Generator: Sketch 52.2 (67145) - http://www.bohemiancoding.com/sketch -->
    <title>mitao</title>
    <desc>Created with Sketch.</desc>
    <g id="Page-2" stroke="none" stroke-width="1" fill="none" fill-rule="evenodd">
        <g id="mitao" transform="translate(-6.000000, -21.000000)">
            <g id="Group-3" transform="translate(0.000000, 40.000000)" font-family="STHeitiTC-Light, Heiti TC" font-weight="300">
                <text id="M" fill="#4A4A4A" font-size="122">
                    <tspan x="0" y="110">M</tspan>
                </text>
                <text id="A" fill="#4A4A4A" font-size="122">
                    <tspan x="193" y="110">A</tspan>
                </text>
                <text id="O" fill="#288986" font-size="142">
                    <tspan x="268" y="122">O</tspan>
                </text>
                <text id="I" fill="#4A4A4A" font-size="122">
                    <tspan x="121" y="110">I</tspan>
                </text>
            </g>
            <g id="Group" transform="translate(183.464520, 84.416526) rotate(-25.000000) translate(-183.464520, -84.416526) translate(118.464520, 21.583193)" fill="#B56576">
                <path d="M97.856263,40.5099789 C97.856263,40.5099789 100.508893,42.8333353 102.695952,41.7479028 C105.167751,40.5041311 112.131522,47.3693906 114.353218,48.9757228 C114.360415,48.9811207 114.375709,48.9811207 114.401799,48.9937159 L113.187266,50.2136467 C111.583183,51.7992868 111.584533,54.388491 113.183218,55.9768301 C114.782803,57.5696675 117.354913,57.568318 118.954948,55.9768301 L128.571349,46.3730239 C130.160138,44.7761381 130.161488,42.1914322 128.568651,40.5972453 C126.981661,39.0084564 124.392907,39.0084564 122.800069,40.5985948 L121.198685,42.1986294 C119.871696,40.3709823 117.666644,37.2559304 117.946436,36.2240273 C119.119135,31.7046156 109.905779,21.0293214 109.905779,21.0293214 C87.0239792,-1.8479796 71.7402076,-1.3279796 64.4692042,1.17215881 C61.5507266,2.17617265 62.0918685,2.81222802 65.1232526,3.34617265 C87.1827682,7.19669168 89.9190657,20.2056882 86.179654,25.2248578 C84.7415571,27.1627124 86.8391003,29.5022626 86.8391003,29.5022626 L87.6276471,30.2854114 L50.3806228,67.5256882 C50.8857785,67.8302211 51.3765398,68.1765879 51.8092734,68.6106709 L58.0749135,74.8704633 C58.5004498,75.2973491 58.8481661,75.7845118 59.15,76.2892176 L96.397474,39.0475913 L97.856263,40.5099789 Z" id="Path"></path>
                <path d="M47.7411982,70.8145713 C46.3665269,69.4385506 44.0269767,69.3499347 42.5564923,70.6269935 L1.16386252,107.736371 C-0.313369311,109.01208 -0.39568765,111.183395 0.981682593,112.560765 L12.2561463,123.827132 C13.6344162,125.204502 15.8016826,125.127582 17.0760425,123.658447 L54.1966653,82.2536717 C55.4665269,80.7845367 55.3860079,78.4530835 54.0072881,77.0775125 L47.7411982,70.8145713 Z" id="Path"></path>
            </g>
            <g id="Group-2" opacity="0.737048921" stroke-linecap="square" transform="translate(306.000000, 78.000000)" stroke="#000000" stroke-width="1.7">
                <path d="M0,0.909859155 L50,0.909859155" id="Line-2"></path>
                <path d="M0,36.1070423 L50,36.1070423" id="Line-2"></path>
                <path d="M0,40.4169014 L50,40.4169014" id="Line-2"></path>
                <path d="M0,45.4450704 L50,45.4450704" id="Line-2"></path>
                <path d="M0,50.4732394 L21.7391304,50.4732394" id="Line-2"></path>
                <path d="M0,5.93802817 L50,5.93802817" id="Line-2"></path>
                <path d="M0,16.5690141 L50,16.5690141" id="Line-2"></path>
                <path d="M0,21.2619718 L50,21.2619718" id="Line-2"></path>
                <path d="M0,26.2901408 L36.2318841,26.2901408" id="Line-2"></path>
                <path d="M0,11.1577465 L50,11.1577465" id="Line-2"></path>
            </g>
        </g>
    </g>
</svg>